<svg xmlns="http://www.w3.org/2000/svg" viewBox="0 0 79 20">
    <path fill="#ffffff" d="M5.6 1v4H8v2H5.6v6.9c0 1.3.8 2 2.4 2v2H5.6c-1.7 0-2.5-1-2.5-3v-8H1V5h2.1V1h2.5zM25.6 1v4H28v2h-2.4v6.9c0 1.3.8 2 2.4 2v2h-2.4c-1.7 0-2.5-1-2.5-3v-8H21V5h2.1V1h2.5zM17.7 17.8v-1.7c0 1.3-1.4 2-4.2 2-2.8 0-4.2-1.1-4.2-3.2V5h2.5v9.4c0 1.2 1 1.7 3 1.7s2.6-.6 2.6-1.7V5H20v12.8h-2.3zM37.4 8.4c0-1.2-1-1.7-3-1.7s-2.8.6-2.8 1.7v5.9c0 1.2.9 1.7 2.8 1.7 2 0 3-.6 3-1.7V8.4zm2.5 6.5c0 2.1-1.8 3.2-5.4 3.2-3.6 0-5.4-1.1-5.4-3.2v-7c0-2.1 1.8-3.2 5.4-3.2 3.6 0 5.4 1.1 5.4 3.2v7zM42 5h2.6v1.7c0-1.3 1-2 3.3-2s3.4 1.1 3.4 3.2v1.5h-2.5v-1c0-1.2-.7-1.7-2.2-1.7-1.5 0-2.1.6-2.1 1.7v9.4H42V5zM54 7.5c0-.8 0-1.8.4-2.9 1.1-3 4-3.2 5.3-3.2.8 0 1.9.1 3 .6 2.1 1.1 2.5 3.1 2.5 4.3 0 2.3-1.1 4.4-4.5 7.2-.6.5-1.2.9-1.8 1.4l6.3-.1v3H54.1V15c1.2-1 2.1-1.6 3.7-3 1.9-1.7 3.3-3 3.3-5.6 0-.6 0-2.2-1.6-2.2-.7 0-1.1.3-1.4.6-.2.3-.4.6-.4 1.6 0 .4 0 .8.1 1.3L54 7.5zM74.5 5H78v12.8h-3.5v-1.2c-.4.4-.6.6-1.2 1-.7.4-1.5.6-2.4.6-.8 0-2-.1-2.9-1.3-.6-.9-1-1.9-1-3.9V5h3.6v8.1c0 .5 0 1.1.3 1.5.2.3.7.6 1.5.6.2 0 .7 0 1.3-.3.8-.5.8-1.1.8-1.8V5z"/>
</svg>