<svg xmlns="http://www.w3.org/2000/svg" viewBox="0 0 400 330"><g opacity=".09" fill="#FFF"><path d="M269.1 232.1c4.6 6.2 9.6 7.1 12.2 7.1l2.7-.4c8.2-1.6 11.3-8.2 11.9-11.5l30.8-136.4c6.2-27.4-1.2-52.6-21.6-71.8C287.3 3.3 268 0 254.9 0c-7 0-11.5 1-11.7 1-41.4 7.5-55 43-55.5 44.3-15.5 36.8 6.1 67.3 6.8 68.2 7.2 11.6 70.4 113.1 74.6 118.6zM200.2 50.2c.5-1.2 11.7-30 45.7-36.1 0 0 3.6-.8 9.1-.8 10.7 0 26.5 2.7 41.6 16.1 16.1 15.1 22.1 35.9 17 58.5l-30.8 136.6c-.2.6-.5.9-1.3 1.1-.3-.2-.8-.6-1.6-1.6-3-4-45.8-72.6-74.2-118.1-.8-.9-18.1-25.7-5.5-55.7zM199.7 211.4c6.8.2 8.2-3.4 8.3-3.9 2.7-5.1-.9-9.1-.9-9.1L119.5 89.2c-26.2-32.7-59.7-26-63.4-25.6C21.5 69.5 8.1 97 8.1 97c-18.4 34 0 64.5 0 64.5 17.5 32.2 52.6 33.8 52.6 33.8s132.2 15.9 139 16.1zM302.7 276.7c-7 4.4-7.5 11.8-6.8 15l5.8 38.3h13.6l-6.1-40.3.6-1.6-.1-.2s.7 0 2.2.9c2.6 1.6 27.2 19.8 55.7 41.1H390c-30.8-22.9-67.5-50.2-71-52.4-6.2-3.8-13.8-3.2-16.3-.8zM311.5 259.6c-.5 7.9 4.8 12.6 7.8 14l80.7 44.5v-15.3l-74.2-40.9-.7-1.5-.2-.1v-.1c.3-.2.8-.6 1.9-1 2.9-1.1 36.1-10.5 73.2-20.9v-13.9c-35.3 9.9-74.2 20.8-77.8 22.2-8.7 3.3-10.8 9.3-10.7 13zM362.7 100.4c.4-1.2 9.1-27.3 37.3-36.6V49.9c-38.2 9.9-49.6 45-49.9 46.1-5 12.7-48.6 124-50.6 130.6-2.6 8.7.9 14.4 3.5 15.8 2.8 2.6 6.3 4 10 4 3.5 0 6-1.2 6.3-1.4l80.7-36v-14.7l-86.3 38.6c-.1 0-.4.1-.7.1l-1-.2s-.2-.7.3-2.4c1.4-4.7 30.8-80.1 50.4-130zM269.5 268.4c-2.5-7.9-9.5-10.3-12.8-10.5l-139.4-15c-3.3-.4-6.5-.5-9.6-.5-23.9 0-44.9 10.4-59.6 30.1-16.6 23.5-14.6 47-12.4 57.5h13.8c-1.6-5.9-5.8-28 10-50.3 11.5-15.5 28.7-24 48.2-24 2.6 0 5.3.1 8.2.4l139.6 15c.7.1 1 .4 1.3 1.2-.1.3-.5.9-1.4 1.7-2.6 2.4-35.9 28.9-70.1 55.9h21.6c27.1-21.5 55-43.7 57.7-46.2 7.3-6.7 6.1-13.8 4.9-15.3zM284.2 280.6c-6.6-2.4-13.7 1.1-16 3.8L224.9 330h18.4l34.6-36.5 1.6-.5s.4.5.6 2.3c.2 1.9.6 15.6 1 34.7h13.4c-.5-19.1-.9-33.8-1.1-36.1-.7-8.9-6-12.9-9.2-13.3z"/></g></svg>