<svg xmlns="http://www.w3.org/2000/svg" viewBox="0 0 91 30">
    <path fill="#011" d="M5.6 11v4H8v2H5.6v6.9c0 1.3.8 2 2.4 2v2H5.6c-1.7 0-2.5-1-2.5-3V17H1v-2h2.1v-4h2.5zM25.6 11v4H28v2h-2.4v6.9c0 1.3.8 2 2.4 2v2h-2.4c-1.7 0-2.5-1-2.5-3V17H21v-2h2.1v-4h2.5zM17.7 27.8v-1.7c0 1.3-1.4 2-4.2 2-2.8 0-4.2-1.1-4.2-3.2V15h2.5v9.4c0 1.2 1 1.7 3 1.7s2.6-.6 2.6-1.7V15H20v12.8h-2.3zM37.4 18.4c0-1.2-1-1.7-3-1.7s-2.8.6-2.8 1.7v5.9c0 1.2.9 1.7 2.8 1.7 2 0 3-.6 3-1.7v-5.9zm2.5 6.5c0 2.1-1.8 3.2-5.4 3.2-3.6 0-5.4-1.1-5.4-3.2V18c0-2.1 1.8-3.2 5.4-3.2 3.6 0 5.4 1.1 5.4 3.2v6.9zM42 15h2.6v1.7c0-1.3 1-2 3.3-2s3.4 1.1 3.4 3.2v1.5h-2.5v-1c0-1.2-.7-1.7-2.2-1.7-1.5 0-2.1.6-2.1 1.7v9.4H42V15zM54 17.5c0-.8 0-1.8.4-2.9 1.1-3 4-3.2 5.3-3.2.8 0 1.9.1 3 .6 2.1 1.1 2.5 3.1 2.5 4.3 0 2.3-1.1 4.4-4.5 7.2-.6.5-1.2.9-1.8 1.4l6.3-.1v3H54.1V25c1.2-1 2.1-1.6 3.7-3 1.9-1.7 3.3-3 3.3-5.6 0-.6 0-2.2-1.6-2.2-.7 0-1.1.3-1.4.6-.2.3-.4.6-.4 1.6 0 .4 0 .8.1 1.3l-3.8-.2zM74.5 15H78v12.8h-3.5v-1.2c-.4.4-.6.6-1.2 1-.7.4-1.5.6-2.4.6-.8 0-2-.1-2.9-1.3-.6-.9-1-1.9-1-3.9v-8h3.6v8.1c0 .5 0 1.1.3 1.5.2.3.7.6 1.5.6.2 0 .7 0 1.3-.3.8-.5.8-1.1.8-1.8V15z"/>
    <path fill="#7894A1" d="M78.2 10.9c-.2 0-.4 0-.5-.1 0 0-1-.3-1.3-1.3 0 0-.3-.9.3-1.7.3-.5.8-.8 1.5-.8h.3l3.7.4c.1 0 .3.1.3.3 0 0 .1.2-.1.4-.1.1-2.6 2.1-2.9 2.3-.1 0-.6.5-1.3.5zm0-3.6c-.5 0-1 .2-1.3.6-.5.7-.3 1.4-.3 1.4.3.9 1.1 1.1 1.1 1.1.1 0 .3.1.4.1.6 0 1-.4 1-.4 1.1-.9 2.8-2.2 2.9-2.3l-3.7-.4c0-.1-.1-.1-.1-.1z"/>
    <path fill="#C08939" d="M81.3 14.2c-.2 0-.5 0-.7-.1 0 0-.9-.3-1.2-1.3-.2-.7 0-1.4.5-1.9l2.6-2.7c0-.2.2-.3.4-.2.1 0 .2.1.3.4 0 .2.1 3.4.1 3.7 0 0 .1 1-.8 1.7-.1 0-.5.4-1.2.4zm1.5-5.9L80.2 11c-.4.4-.6 1-.4 1.6.3.8.9 1 1 1 .2.1.4.1.6.1.6 0 1-.3 1-.3.7-.5.6-1.4.6-1.4-.2-1.3-.2-3.5-.2-3.7z"/>
    <path fill="#1B5370" d="M85.7 13.7c-.2 0-.5 0-.7-.1-.4-.2-1.1-.6-1.2-1.6l-.6-3.7c0-.1 0-.3.2-.4.1-.1.3-.1.4 0 .2.1 2.7 2 3 2.2 0 0 .9.6.8 1.6 0 0 0 1.1-.9 1.6 0 .1-.4.4-1 .4zm-2.1-5.5l.5 3.7c.1.8.7 1.2 1 1.3.2.1.4.1.6.1.5 0 .8-.2.8-.2.8-.5.8-1.3.8-1.3 0-.9-.7-1.3-.7-1.3-1.1-.9-2.9-2.2-3-2.3z"/>
    <path fill="#6B220B" d="M88.1 9.9c-.3 0-.7-.1-1-.3l-3.3-1.8c-.1 0-.2-.2-.2-.4 0-.1.1-.3.3-.3.2-.1 3.3-.9 3.6-1 0 0 .2-.1.6-.1.5 0 .9.1 1.2.4 0 0 .8.6.7 1.8 0 0-.1.9-.9 1.4-.3.2-.6.3-1 .3zM84 7.5l3.3 1.9c.5.3 1.1.3 1.6 0 .7-.4.8-1.2.8-1.2.1-.9-.6-1.4-.6-1.4-.3-.2-.6-.3-1-.3-.3 0-.5.1-.5.1-1.4.2-3.4.8-3.6.9 0-.1 0-.1 0 0z"/>
    <path fill="#8C6D44" d="M83.7 7.1c-.1 0-.2 0-.3-.1-.1 0-.2-.2-.1-.4s1.2-3.2 1.4-3.5c0 0 .3-1 1.4-1.2 0 0 1-.3 1.8.5 0 0 .7.6.6 1.6-.1.7-.5 1.3-1.2 1.6L83.8 7c0 .1 0 .1-.1.1zm2.8-5h-.4c-.8.2-1.1 1-1.1 1-.5 1.3-1.3 3.4-1.3 3.5v.1l3.4-1.5c.6-.3.9-.7 1-1.3.1-.8-.5-1.3-.5-1.3-.4-.4-.8-.5-1.1-.5z"/>
    <path fill="#5D7348" d="M82.8 6.9c-.1 0-.2 0-.3-.2-.1-.1-1.8-2.9-2-3.2 0 0-.6-.8-.2-1.8 0 0 .4-1 1.5-1.2h.3c.3 0 .9.1 1.3.5.6.5.8 1.2.6 1.9l-.8 3.7c0 .1-.1.2-.4.3zM82.1.8h-.2c-.9.2-1.2.9-1.2 1-.3.8.1 1.5.1 1.5.8 1.2 1.9 3.1 2 3.2l.8-3.7c.1-.6 0-1.2-.5-1.6-.3-.3-.7-.4-1-.4z"/>
    <path fill="#82365A" d="M75.5 3.1s.4-.7 1.3-.9c.1 0 1-.2 1.7.7l2.3 2.9s.1.1 0 .2c0 0 0 .1-.2.1s-3.7-.4-3.7-.4-.9 0-1.4-.9c0 0-.5-.8 0-1.7"/>
</svg>