<svg xmlns="http://www.w3.org/2000/svg" viewBox="0 0 16 17">
    <path fill="currentColor" d="M8 1C4.1 1 1 4.1 1 8c0 2.9 1.7 5.3 4.2 6.4 0-.5 0-1.1.1-1.6.1-.6.9-3.8.9-3.8S6 8.5 6 7.9c0-1 .6-1.8 1.4-1.8.6 0 .9.5.9 1.1 0 .6-.4 1.6-.6 2.5-.2.6.3 1.3 1.1 1.3 1.3 0 2.2-1.7 2.2-3.7 0-1.5-1-2.7-2.9-2.7C6 4.5 4.6 6.1 4.6 7.9c0 .6.2 1 .5 1.4.1.2.1.2.1.4 0 .1-.1.4-.1.6 0 .2-.2.2-.4.2-1-.4-1.4-1.5-1.4-2.7 0-2 1.7-4.4 5-4.4 2.7 0 4.4 1.9 4.4 4 0 2.7-1.5 4.8-3.8 4.8-.8 0-1.5-.4-1.7-.9 0 0-.4 1.6-.5 1.9-.1.5-.4 1.1-.7 1.5.6.2 1.3.3 2 .3 3.9 0 7-3.1 7-7s-3.1-7-7-7z"/>
</svg>