<svg xmlns="http://www.w3.org/2000/svg" viewBox="0 0 18 15">
    <path fill="none" d="M18 0H0v15h18V0z"/>
    <path fill="currentColor" d="M16.997 2.54a6.567 6.567 0 01-1.886.516 3.294 3.294 0 001.444-1.816 6.557 6.557 0 01-2.084.796A3.282 3.282 0 008.878 5.03a9.316 9.316 0 01-6.764-3.428A3.28 3.28 0 003.13 5.983a3.286 3.286 0 01-1.487-.41v.04c0 1.59 1.13 2.916 2.632 3.218a3.278 3.278 0 01-1.482.057 3.284 3.284 0 003.066 2.278A6.583 6.583 0 011 12.526 9.286 9.286 0 006.03 14c6.037 0 9.338-5.001 9.338-9.338 0-.141-.003-.283-.01-.424a6.675 6.675 0 001.639-1.699z"/>
</svg>